<svg class="d-block" width="125" height="37" viewBox="0 0 125 37" fill="none" xmlns="http://www.w3.org/2000/svg">
  <path d="M62.6282 21.7686C62.6214 20.7502 62.4255 19.8672 62.0396 19.1197C61.6546 18.3722 61.1391 17.7397 60.49 17.2183C59.8419 16.6979 59.1158 16.2691 58.3157 15.9348C57.5156 15.5986 56.6989 15.3325 55.8617 15.1366L53.666 14.5801C53.1914 14.469 52.7167 14.3257 52.2392 14.1523C51.7646 13.9788 51.3289 13.7673 50.9313 13.5178C50.5356 13.2693 50.2218 12.9594 49.9879 12.59C49.753 12.2207 49.64 11.7879 49.6468 11.2899C49.6468 10.6847 49.8203 10.1487 50.1682 9.67602C50.5161 9.2053 51.0122 8.83495 51.6564 8.56207C52.3025 8.28919 53.0744 8.15567 53.971 8.15567C55.239 8.15567 56.2769 8.43635 57.0829 8.99673C57.8898 9.55907 58.3508 10.3465 58.4629 11.3572H62.3115C62.2803 10.0668 61.9158 8.92657 61.2151 7.93249C60.5114 6.94134 59.5447 6.16168 58.3118 5.59642C57.077 5.02921 55.6512 4.74756 54.0285 4.74756C52.4058 4.74756 50.9937 5.02921 49.7228 5.59642C48.45 6.16168 47.4481 6.95206 46.7114 7.96758C45.9756 8.98114 45.6081 10.1672 45.6081 11.5258C45.6081 13.1777 46.1578 14.5012 47.2552 15.4923C48.3516 16.4844 49.8485 17.2271 51.7431 17.7163L54.4135 18.4287C55.2419 18.6392 55.9738 18.8809 56.6092 19.1548C57.2417 19.4248 57.7388 19.7678 58.0974 20.1791C58.4561 20.5904 58.6383 21.1088 58.6471 21.7355C58.6373 22.4216 58.4307 23.021 58.0224 23.5326C57.616 24.0462 57.0536 24.4497 56.3373 24.7392C55.621 25.0286 54.7984 25.1738 53.8716 25.1738C52.9448 25.1738 52.1856 25.0403 51.4654 24.7723C50.7461 24.5043 50.1624 24.1018 49.7111 23.5609C49.2628 23.0229 49.0085 22.3407 48.949 21.5191H45C45.0594 23.021 45.4571 24.2977 46.1929 25.3502C46.9297 26.4037 47.951 27.2078 49.2589 27.7662C50.5688 28.3246 52.1135 28.6034 53.894 28.6034C55.6746 28.6034 57.307 28.3129 58.6081 27.7331C59.9092 27.1503 60.9023 26.3482 61.5884 25.322C62.2764 24.2957 62.6234 23.1116 62.6302 21.7686H62.6282Z" fill="white" />
  <path d="M67.6859 8.33494C68.3213 8.33494 68.8642 8.12151 69.3164 7.69464C69.7686 7.26875 69.9956 6.75904 69.9956 6.16065C69.9956 5.56225 69.7686 5.05742 69.3164 4.6325C68.8642 4.21051 68.3213 4 67.6859 4C67.0505 4 66.5213 4.21051 66.0691 4.6325C65.6159 5.05742 65.3898 5.56518 65.3898 6.16065C65.3898 6.75612 65.6159 7.26777 66.0691 7.69464C66.5213 8.12151 67.0602 8.33494 67.6859 8.33494Z" fill="white" />
  <path d="M69.6223 10.8579H65.7299V28.2405H69.6223V10.8579Z" fill="white" />
  <path d="M77.2741 17.909C77.2741 17.1615 77.4475 16.5017 77.7955 15.9286C78.1424 15.3546 78.617 14.9063 79.2154 14.5808C79.8148 14.2582 80.5009 14.0954 81.2698 14.0954C81.61 14.0954 81.9618 14.1198 82.3263 14.1685C82.6937 14.2182 82.9598 14.2689 83.1245 14.3225V10.7117C82.9442 10.6747 82.7113 10.6464 82.4238 10.6279C82.1382 10.6084 81.8848 10.5996 81.6655 10.5996C80.6627 10.5996 79.769 10.8725 78.9845 11.4192C78.1989 11.966 77.6483 12.733 77.3316 13.7231H77.1513V10.8588H73.3816V28.2415H77.2741V17.9099V17.909Z" fill="white" />
  <path d="M89.2609 10.8579H85.3665V28.2405H89.2609V10.8579Z" fill="white" />
  <path d="M87.3254 8.33494C87.9599 8.33494 88.5037 8.12151 88.9559 7.69464C89.4081 7.26875 89.6352 6.75904 89.6352 6.16065C89.6352 5.56225 89.4081 5.05742 88.9559 4.6325C88.5037 4.21051 87.9599 4 87.3254 4C86.691 4 86.1608 4.21051 85.7076 4.6325C85.2554 5.05742 85.0283 5.56518 85.0283 6.16065C85.0283 6.75612 85.2554 7.26777 85.7076 7.69464C86.1608 8.12151 86.6997 8.33494 87.3254 8.33494Z" fill="white" />
  <path d="M104.008 25.1745H104.188V28.2405H107.979V10.8579H104.087V20.9633C104.087 21.8775 103.895 22.6338 103.514 23.2341C103.132 23.8335 102.651 24.2847 102.066 24.5859C101.48 24.887 100.879 25.0381 100.259 25.0381C99.2633 25.0381 98.4573 24.7067 97.8375 24.0421C97.2196 23.3784 96.9107 22.4798 96.9107 21.3503V10.8579H93.0182V21.9155C93.0182 23.3257 93.2618 24.5176 93.7521 25.4913C94.2442 26.4649 94.9235 27.2036 95.7899 27.7094C96.6582 28.2152 97.6582 28.4676 98.7897 28.4676C100.096 28.4676 101.192 28.1606 102.082 27.5398C102.972 26.9219 103.614 26.1335 104.008 25.1745Z" fill="white" />
  <path d="M123.798 20.076C123 19.3012 121.785 18.7399 120.154 18.3861L117.246 17.7507C116.341 17.5402 115.69 17.2692 115.294 16.9418C114.898 16.6143 114.703 16.1865 114.712 15.6563C114.703 15.0452 114.998 14.5462 115.593 14.1574C116.189 13.7705 116.929 13.5746 117.813 13.5746C118.468 13.5746 119.02 13.6808 119.464 13.8913C119.911 14.1018 120.264 14.3796 120.529 14.7178C120.794 15.0579 120.981 15.4195 121.095 15.8035L124.638 15.3522C124.335 13.9108 123.614 12.7637 122.471 11.91C121.326 11.0582 119.759 10.6313 117.768 10.6313C116.403 10.6313 115.197 10.8497 114.153 11.2824C113.106 11.718 112.293 12.3271 111.709 13.1117C111.125 13.8962 110.832 14.8172 110.832 15.8717C110.832 17.1328 111.225 18.1727 112.015 18.9903C112.801 19.808 114.023 20.3947 115.674 20.7504L118.641 21.3839C119.448 21.5574 120.045 21.8147 120.434 22.1529C120.821 22.493 121.017 22.915 121.017 23.4208C121.017 24.0387 120.712 24.5571 120.101 24.9772C119.49 25.3943 118.674 25.6058 117.657 25.6058C116.641 25.6058 115.908 25.3992 115.308 24.9879C114.708 24.5766 114.315 23.9685 114.126 23.1596L110.334 23.5796C110.599 25.1643 111.368 26.3942 112.642 27.2743C113.919 28.1534 115.593 28.5929 117.668 28.5929C119.108 28.5929 120.378 28.3609 121.475 27.8922C122.574 27.4244 123.436 26.7772 124.061 25.9508C124.688 25.1253 125 24.1702 125 23.0943C125 21.8576 124.6 20.8508 123.8 20.077L123.798 20.076Z" fill="white" />
  <path d="M28.5283 0.00147115L23.2496 9.14062L26.3512 10.932L31.6298 1.79285L28.5283 0.00147115Z" fill="white" />
  <path d="M40 16.354H29.3524V19.9363H40V16.354Z" fill="white" />
  <path d="M26.2788 25.3999L23.1775 27.1904L28.3808 36.2028L31.4821 34.4123L26.2788 25.3999Z" fill="white" />
  <path d="M12.0206 0L8.9196 1.79084L17.3271 16.3541H0V19.9358H17.3271L8.97088 34.4099L12.0718 36.2014L22.5092 18.1449L21.6677 16.7085L12.0206 0Z" fill="white" />
</svg>
